<?xml version="1.0" encoding="UTF-8" standalone="no"?>
<svg
   width="64px"
   height="64px"
   viewBox="0 0 512 512"
   version="1.1"
   id="svg19"
   sodipodi:docname="compass.svg"
   inkscape:version="1.1.2 (0a00cf5339, 2022-02-04, custom)"
   xmlns:inkscape="http://www.inkscape.org/namespaces/inkscape"
   xmlns:sodipodi="http://sodipodi.sourceforge.net/DTD/sodipodi-0.dtd"
   xmlns="http://www.w3.org/2000/svg"
   xmlns:svg="http://www.w3.org/2000/svg">
  <sodipodi:namedview
     id="namedview21"
     pagecolor="#505050"
     bordercolor="#eeeeee"
     borderopacity="1"
     inkscape:pageshadow="0"
     inkscape:pageopacity="0"
     inkscape:pagecheckerboard="0"
     showgrid="false"
     inkscape:zoom="11.234375"
     inkscape:cx="32"
     inkscape:cy="32"
     inkscape:window-width="1920"
     inkscape:window-height="1051"
     inkscape:window-x="-9"
     inkscape:window-y="-9"
     inkscape:window-maximized="1"
     inkscape:current-layer="svg19" />
  <defs
     id="defs9">
    <linearGradient
       id="a"
       x1="184"
       x2="328"
       y1="131.3"
       y2="380.7"
       gradientUnits="userSpaceOnUse">
      <stop
         offset="0"
         stop-color="#6b7280"
         id="stop2" />
      <stop
         offset=".5"
         stop-color="#6b7280"
         id="stop4" />
      <stop
         offset="1"
         stop-color="#374151"
         id="stop6" />
    </linearGradient>
  </defs>
  <circle
     cx="256"
     cy="256"
     r="144"
     fill="url(#a)"
     stroke="#e5e7eb"
     stroke-miterlimit="10"
     stroke-width="12"
     id="circle11" />
  <path
     fill="#9ca3af"
     d="M259.2 152v-10.4h4.6v18h-4.7l-6.3-10.4v10.4h-4.6v-18h4.7Zm103.3 105.7v3.3h9.8v4h-14.5v-18H372v4h-9.5v3h8.3v3.8Zm-106.4 116a8.4 8.4 0 01-5.4-1.6 5.8 5.8 0 01-2-4.4h4.4c0 1.6 1.1 2.4 3.1 2.4 1.8 0 2.6-.6 2.6-1.7a1.3 1.3 0 00-.4-1 4.6 4.6 0 00-1.6-.7l-3.4-.7c-2.9-.7-4.4-2.4-4.4-4.9a5 5 0 011.7-3.9 7.5 7.5 0 015.1-1.5 8 8 0 015 1.5 5.2 5.2 0 012 4h-4.3c-.2-1.4-1-2-2.7-2a2.9 2.9 0 00-1.6.4 1.3 1.3 0 00-.6 1c0 .8.5 1.3 1.6 1.6l3.5.8q4.7 1.1 4.7 5.1a4.9 4.9 0 01-2 4.1 8.5 8.5 0 01-5.3 1.5ZM156.2 255l2-8h4.7l-5.2 18h-4.5l-2.5-11.5-2.3 11.5h-4.6l-5.2-18h4.7l2 8 .9 4.2.7-4.3 1.7-7.9h4.4l1.8 8 .6 4.1Z"
     id="path13" />
  <g
     id="g840">
    <path
       fill="#ef4444"
       d="m256 172-24 84h48l-24-84z"
       id="path15" />
    <path
       fill="#fff"
       d="m232 256 24 84 24-84h-48z"
       id="path17" />
  </g>
</svg>
