<?xml version="1.0" encoding="UTF-8" standalone="no"?>
<svg
   width="64px"
   height="64px"
   viewBox="0 0 512 512"
   version="1.1"
   id="svg39"
   sodipodi:docname="thermometer-colder.svg"
   inkscape:version="1.1.2 (0a00cf5339, 2022-02-04, custom)"
   xmlns:inkscape="http://www.inkscape.org/namespaces/inkscape"
   xmlns:sodipodi="http://sodipodi.sourceforge.net/DTD/sodipodi-0.dtd"
   xmlns:xlink="http://www.w3.org/1999/xlink"
   xmlns="http://www.w3.org/2000/svg"
   xmlns:svg="http://www.w3.org/2000/svg">
  <sodipodi:namedview
     id="namedview41"
     pagecolor="#505050"
     bordercolor="#eeeeee"
     borderopacity="1"
     inkscape:pageshadow="0"
     inkscape:pageopacity="0"
     inkscape:pagecheckerboard="0"
     showgrid="false"
     inkscape:zoom="11.234375"
     inkscape:cx="32"
     inkscape:cy="32"
     inkscape:window-width="1920"
     inkscape:window-height="1051"
     inkscape:window-x="-9"
     inkscape:window-y="-9"
     inkscape:window-maximized="1"
     inkscape:current-layer="svg39" />
  <defs
     id="defs29">
    <symbol
       id="d"
       viewBox="0 0 72 168">
      <circle
         cx="36"
         cy="132"
         r="36"
         fill="#bee9e8"
         id="circle2" />
      <path
         fill="none"
         stroke="#bee9e8"
         stroke-linecap="round"
         stroke-miterlimit="10"
         stroke-width="24"
         d="M36 12v120"
         id="path4" />
    </symbol>
    <symbol
       id="e"
       viewBox="0 0 118 278">
      <path
         fill="url(#a)"
         stroke="url(#b)"
         stroke-linecap="round"
         stroke-linejoin="round"
         stroke-width="6"
         d="M115 218.2c0 31.4-25 56.8-56 56.8S3 249.6 3 218.2a57 57 0 0124-46.6V35.5a32 32 0 1164 0v136a57 57 0 0124 46.7ZM63 83h28M63 51h28m-28 64h28"
         id="path7" />
    </symbol>
    <symbol
       id="c"
       viewBox="0 0 118 278">
      <use
         xlink:href="#d"
         width="72"
         height="168"
         transform="translate(23 87)"
         id="use10" />
      <use
         xlink:href="#e"
         width="118"
         height="278"
         id="use12" />
    </symbol>
    <linearGradient
       id="a"
       x1="-7.2"
       x2="116.4"
       y1="36.3"
       y2="250.4"
       gradientUnits="userSpaceOnUse">
      <stop
         offset="0"
         stop-color="#bee9e8"
         stop-opacity=".1"
         id="stop15" />
      <stop
         offset=".5"
         stop-color="#6b7280"
         stop-opacity=".1"
         id="stop17" />
      <stop
         offset="1"
         stop-color="#384354"
         stop-opacity=".1"
         id="stop19" />
    </linearGradient>
    <linearGradient
       id="b"
       x1="-8.7"
       x2="117.9"
       y1="33.7"
       y2="253"
       gradientUnits="userSpaceOnUse">
      <stop
         offset="0"
         stop-color="#d4d7dd"
         id="stop22" />
      <stop
         offset=".5"
         stop-color="#d4d7dd"
         id="stop24" />
      <stop
         offset="1"
         stop-color="#bec1c6"
         id="stop26" />
    </linearGradient>
  </defs>
  <use
     xlink:href="#c"
     width="118"
     height="278"
     transform="translate(197,117)"
     id="use31"
     style="display:inline"
     x="0"
     y="0"
     inkscape:label="use31" />
  <path
     fill="#2a81bf"
     d="M372.5 271a4.6 4.6 0 00-3.2 1.3L350 290.7l-19.3-18.4a4.6 4.6 0 00-6.4 0 4.1 4.1 0 000 6l22.5 21.4a4.6 4.6 0 006.4 0l22.5-21.4a4.1 4.1 0 000-6 4.6 4.6 0 00-3.2-1.3Z"
     id="path33"
     style="fill:#bee9e8;fill-opacity:1" />
  <path
     fill="#2a81bf"
     d="M372.5 244a4.6 4.6 0 00-3.2 1.3L350 263.7l-19.3-18.4a4.6 4.6 0 00-6.4 0 4.1 4.1 0 000 6l22.5 21.4a4.6 4.6 0 006.4 0l22.5-21.4a4.1 4.1 0 000-6 4.6 4.6 0 00-3.2-1.3Z"
     id="path35"
     style="fill:#bee9e8;fill-opacity:1" />
  <path
     fill="#2a81bf"
     d="M372.5 217a4.6 4.6 0 00-3.2 1.3L350 236.7l-19.3-18.4a4.6 4.6 0 00-6.4 0 4.1 4.1 0 000 6l22.5 21.4a4.6 4.6 0 006.4 0l22.5-21.4a4.1 4.1 0 000-6 4.6 4.6 0 00-3.2-1.3Z"
     id="path37"
     style="fill:#bee9e8;fill-opacity:1" />
</svg>
